<svg width="163" height="28" viewBox="0 0 163 28" fill="none" xmlns="http://www.w3.org/2000/svg">
<g id="Frame" clip-path="url(#clip0_22_139)">
<g id="text-0">
<path id="Vector" d="M2.00999 26.5887V8.21742C2.00999 7.92381 1.86318 7.77701 1.56958 7.77701H0.0910645V7.21077H1.63249C2.8908 7.21077 3.77162 7.14786 4.27494 7.02203V11.4261C4.63146 9.91614 5.204 8.77317 5.99254 7.99721C6.77688 7.22126 7.65141 6.83328 8.61611 6.83328C9.93734 6.83328 11.1013 7.49389 12.1079 8.81512C13.1146 10.1363 13.6179 11.8875 13.6179 14.0686C13.6179 16.2496 13.0475 17.9798 11.9066 19.2591C10.7615 20.5384 9.26624 21.178 7.42072 21.178C6.26727 21.178 5.21868 20.8949 4.27494 20.3286V26.5887C4.27494 26.8823 4.42175 27.0292 4.71535 27.0292H6.82302V27.5954H0.0910645V27.0292H1.56958C1.86318 27.0292 2.00999 26.8823 2.00999 26.5887ZM11.2271 14.1315C11.2271 12.1811 10.923 10.6753 10.3148 9.61414C9.70665 8.55716 8.93698 8.02867 8.00583 8.02867C7.07049 8.02867 6.21484 8.64734 5.43888 9.88468C4.66292 11.122 4.27494 12.9046 4.27494 15.2325V19.4793C5.1977 20.0875 6.21064 20.3916 7.31376 20.3916C8.41269 20.3916 9.33964 19.8358 10.0946 18.7243C10.8496 17.6128 11.2271 16.0819 11.2271 14.1315ZM17.8961 19.2591C16.7217 17.9798 16.1345 16.2287 16.1345 14.0056C16.1345 11.7826 16.7217 10.0315 17.8961 8.7522C19.0706 7.47292 20.6015 6.83328 22.489 6.83328C24.3764 6.83328 25.9116 7.47292 27.0944 8.7522C28.2814 10.0315 28.8749 11.7826 28.8749 14.0056C28.8749 16.2287 28.2814 17.9798 27.0944 19.2591C25.9116 20.5384 24.3764 21.178 22.489 21.178C20.6015 21.178 19.0706 20.5384 17.8961 19.2591ZM19.6578 9.2744C18.9028 10.4362 18.5253 12.0133 18.5253 14.0056C18.5253 15.998 18.9028 17.575 19.6578 18.7369C20.4128 19.9029 21.3565 20.4859 22.489 20.4859C23.6215 20.4859 24.5694 19.9029 25.3328 18.7369C26.1003 17.575 26.4841 15.998 26.4841 14.0056C26.4841 12.0133 26.1003 10.4362 25.3328 9.2744C24.5694 8.10837 23.6215 7.52535 22.489 7.52535C21.3565 7.52535 20.4128 8.10837 19.6578 9.2744ZM37.746 6.83328C39.193 6.83328 40.336 7.31563 41.1749 8.28033C42.0138 9.24504 42.4332 10.6606 42.4332 12.5271C42.4332 12.9046 42.4122 13.3241 42.3703 13.7854H33.7823V14.0056C33.7823 15.998 34.143 17.5646 34.8645 18.7054C35.5901 19.8505 36.5233 20.423 37.6642 20.423C38.8093 20.423 39.7488 20.1294 40.4828 19.5422C41.2168 18.955 41.718 18.1161 41.9865 17.0256L42.5905 17.1514C42.3388 18.4307 41.7621 19.4227 40.8603 20.1273C39.9585 20.8278 38.9204 21.178 37.746 21.178C35.9214 21.178 34.4052 20.5384 33.1972 19.2591C31.9934 17.9798 31.3915 16.2329 31.3915 14.0182C31.3915 11.8078 31.9997 10.0566 33.2161 8.76478C34.4324 7.47711 35.9424 6.83328 37.746 6.83328ZM40.2563 11.4576C40.2563 8.87803 39.2937 7.58826 37.3685 7.58826C36.4038 7.58826 35.5796 8.11256 34.8959 9.16115C34.2164 10.2097 33.8557 11.5415 33.8138 13.1563H40.1368C40.2165 12.4432 40.2563 11.877 40.2563 11.4576ZM48.341 3.87625H48.8128V7.21077H51.9586V7.77701H48.8128V18.4412C48.8128 19.5737 49.1274 20.1399 49.7565 20.1399C50.0502 20.1399 50.3081 20.0036 50.5304 19.731C50.7485 19.4583 50.8576 19.1437 50.8576 18.7872C50.8576 18.4307 50.8261 18.0952 50.7632 17.7806L51.3609 17.6862C51.4448 18.0008 51.4867 18.3468 51.4867 18.7243C51.4867 19.4793 51.2623 20.077 50.8135 20.5174C50.3605 20.9578 49.767 21.178 49.033 21.178C48.299 21.178 47.7013 20.8781 47.2399 20.2783C46.7785 19.6827 46.5479 18.7872 46.5479 17.5918V8.21742C46.5479 7.92381 46.4011 7.77701 46.1075 7.77701H44.6289V7.21077H46.1704C46.8415 7.21077 47.565 6.09927 48.341 3.87625ZM61.8678 6.83328C62.6857 6.83328 63.3526 7.17931 63.8685 7.87138C64.3802 8.56346 64.6361 9.43379 64.6361 10.4824C64.6361 11.531 64.2061 12.0553 63.3463 12.0553C62.843 12.0553 62.434 11.898 62.1194 11.5834C62.3921 10.9752 62.5284 10.3565 62.5284 9.72739C62.5284 8.61588 62.067 8.06013 61.1443 8.06013C60.3683 8.06013 59.6825 8.70397 59.0869 9.99164C58.4871 11.2835 58.1872 13.1563 58.1872 15.61V19.7939C58.1872 20.0875 58.334 20.2343 58.6276 20.2343H60.7353V20.8005H54.0033V20.2343H55.4819C55.7755 20.2343 55.9223 20.0875 55.9223 19.7939V8.21742C55.9223 7.92381 55.7755 7.77701 55.4819 7.77701H54.0033V7.21077H55.5448C56.8031 7.21077 57.6839 7.14786 58.1872 7.02203V11.0486C58.5228 9.60156 59.0156 8.53619 59.6657 7.85251C60.3159 7.17302 61.0499 6.83328 61.8678 6.83328ZM73.9161 7.77701V7.21077H77.9112V7.77701H76.7473C76.5585 7.77701 76.4117 7.92381 76.3069 8.21742L70.8647 22.7824C70.8018 22.9711 70.6969 23.2542 70.5501 23.6317L70.2041 24.4811C70.1412 24.6698 70.0468 24.9278 69.921 25.2549C69.7951 25.5779 69.6903 25.8296 69.6064 26.0099C69.5225 26.1861 69.4176 26.4 69.2918 26.6517C69.145 26.9662 68.9353 27.2661 68.6627 27.5513C68.39 27.8324 68.1069 27.9729 67.8133 27.9729C67.5197 27.9729 67.2093 27.7904 66.8821 27.4255C66.5592 27.0564 66.3662 26.6621 66.3033 26.2427C68.2118 25.4248 69.512 24.0616 70.2041 22.1532L70.7389 20.7061L66.0831 8.21742C65.9783 7.92381 65.8315 7.77701 65.6427 7.77701H64.4788V7.21077H69.8266V7.77701H68.2537L71.8713 17.7177L75.5204 7.77701H73.9161Z" fill="white"/>
<path id="Vector_2" d="M99.2396 7.58826L98.9879 7.5568C98.7992 6.25655 98.3273 5.60642 97.5723 5.60642C97.1948 5.60642 96.8488 5.80565 96.5342 6.20411C96.2197 6.60258 96.0309 7.12687 95.968 7.777C97.1005 8.63685 97.6667 9.83224 97.6667 11.3632C97.6667 12.8941 97.22 14.0727 96.3266 14.899C95.4374 15.7295 94.2798 16.1448 92.8537 16.1448H90.0539C89.5296 16.1448 89.1249 16.2916 88.8397 16.5852C88.5586 16.8788 88.4181 17.2248 88.4181 17.6233C88.4181 18.0217 88.5586 18.3678 88.8397 18.6614C89.1249 18.955 89.5296 19.1018 90.0539 19.1018H95.3074C96.5657 19.1018 97.5136 19.3891 98.1512 19.9637C98.7929 20.5426 99.1138 21.2724 99.1138 22.1532C99.1138 23.5583 98.4532 24.8795 97.1319 26.1169C95.8107 27.3542 94.1644 27.9729 92.1931 27.9729C90.6831 27.9729 89.4562 27.6164 88.5125 26.9033C87.5688 26.1903 87.0969 25.2885 87.0969 24.1979C87.0969 23.1074 87.6736 22.0588 88.8271 21.0522C88.2818 20.9054 87.8456 20.5971 87.5184 20.1273C87.1955 19.6533 87.034 19.0703 87.034 18.3783C87.034 17.6862 87.2857 17.0612 87.789 16.5034C88.2923 15.9497 89.0473 15.6729 90.0539 15.6729H90.5258C88.89 14.9179 88.0721 13.5233 88.0721 11.489C88.0721 10.042 88.5125 8.90319 89.3933 8.07271C90.2741 7.24642 91.4276 6.83327 92.8537 6.83327C93.7974 6.83327 94.6258 7.02202 95.3388 7.39951C95.4856 6.56064 95.7834 5.86857 96.2322 5.3233C96.6852 4.77803 97.2829 4.5054 98.0253 4.5054C98.7719 4.5054 99.3906 4.70463 99.8813 5.10309C100.376 5.50156 100.624 5.93148 100.624 6.39286C100.624 7.18979 100.162 7.58826 99.2396 7.58826ZM95.3074 21.178H89.8023C89.1312 21.954 88.7956 22.8348 88.7956 23.8205C88.7956 24.8061 89.0892 25.6198 89.6764 26.2616C90.2637 26.8991 91.2116 27.2179 92.5202 27.2179C93.8331 27.2179 95.0243 26.7565 96.0938 25.8337C97.1634 24.911 97.6982 23.9568 97.6982 22.9711C97.6982 22.4468 97.4989 22.0169 97.1005 21.6813C96.702 21.3458 96.1043 21.178 95.3074 21.178ZM91.0291 8.5949C90.5468 9.30795 90.3056 10.2726 90.3056 11.489C90.3056 12.7054 90.5468 13.6701 91.0291 14.3831C91.5115 15.0962 92.1197 15.4527 92.8537 15.4527C93.5877 15.4527 94.2001 15.0962 94.6908 14.3831C95.1857 13.6701 95.4332 12.7054 95.4332 11.489C95.4332 10.2726 95.1857 9.30795 94.6908 8.5949C94.2001 7.88186 93.5877 7.52534 92.8537 7.52534C92.1197 7.52534 91.5115 7.88186 91.0291 8.5949ZM109.054 13.754V13.4709L109.086 12.3698V11.2688C109.086 8.81511 108.289 7.58826 106.695 7.58826C106.003 7.58826 105.462 7.82314 105.072 8.29291C104.686 8.76687 104.493 9.31843 104.493 9.94759C104.493 10.5767 104.577 11.122 104.745 11.5834C104.388 11.898 103.895 12.0553 103.266 12.0553C102.637 12.0553 102.322 11.5414 102.322 10.5138C102.322 9.48621 102.725 8.61588 103.53 7.90283C104.34 7.18979 105.489 6.83327 106.978 6.83327C109.893 6.83327 111.351 8.55296 111.351 11.9923V18.4412C111.351 19.5737 111.665 20.1399 112.295 20.1399C112.588 20.1399 112.844 20.0036 113.062 19.7309C113.284 19.4583 113.396 19.1437 113.396 18.7872C113.396 18.4307 113.364 18.0951 113.301 17.7806L113.899 17.6862C113.983 18.0008 114.025 18.3468 114.025 18.7243C114.025 19.4793 113.798 20.077 113.345 20.5174C112.896 20.9578 112.305 21.178 111.571 21.178C110.837 21.178 110.239 20.8781 109.778 20.2783C109.317 19.6827 109.086 18.7872 109.086 17.5918V17.0256C108.729 18.4517 108.163 19.5003 107.387 20.1714C106.611 20.8425 105.714 21.178 104.694 21.178C103.679 21.178 102.861 20.8571 102.241 20.2154C101.624 19.5779 101.316 18.7285 101.316 17.6673C101.316 16.6103 101.809 15.6687 102.794 14.8424C103.78 14.0119 105.196 13.5967 107.041 13.5967C107.44 13.5967 108.111 13.6491 109.054 13.754ZM105.405 19.9826C106.286 19.9826 107.077 19.4835 107.777 18.4852C108.482 17.4912 108.897 16.0923 109.023 14.2888C108.813 14.2678 108.52 14.2573 108.142 14.2573C106.464 14.2573 105.263 14.6096 104.537 15.3143C103.816 16.0147 103.455 16.8263 103.455 17.7491C103.455 18.3573 103.633 18.8816 103.99 19.322C104.346 19.7624 104.818 19.9826 105.405 19.9826ZM117.353 19.7939V1.42254C117.353 1.12893 117.206 0.982129 116.913 0.982129H115.434V0.415888H116.975C118.234 0.415888 119.115 0.352973 119.618 0.227142V19.7939C119.618 20.0875 119.765 20.2343 120.058 20.2343H121.537V20.8005H115.434V20.2343H116.913C117.206 20.2343 117.353 20.0875 117.353 19.7939ZM125.501 19.2591C124.326 17.9798 123.739 16.2287 123.739 14.0056C123.739 11.7826 124.326 10.0315 125.501 8.75219C126.675 7.47291 128.206 6.83327 130.093 6.83327C131.981 6.83327 133.518 7.47291 134.705 8.75219C135.888 10.0315 136.479 11.7826 136.479 14.0056C136.479 16.2287 135.888 17.9798 134.705 19.2591C133.518 20.5384 131.981 21.178 130.093 21.178C128.206 21.178 126.675 20.5384 125.501 19.2591ZM127.262 9.27439C126.507 10.4362 126.13 12.0133 126.13 14.0056C126.13 15.998 126.507 17.575 127.262 18.7369C128.017 19.9029 128.961 20.4859 130.093 20.4859C131.226 20.4859 132.176 19.9029 132.943 18.7369C133.707 17.575 134.088 15.998 134.088 14.0056C134.088 12.0133 133.707 10.4362 132.943 9.27439C132.176 8.10836 131.226 7.52534 130.093 7.52534C128.961 7.52534 128.017 8.10836 127.262 9.27439ZM147.018 6.83327C147.836 6.83327 148.5 7.17931 149.012 7.87138C149.528 8.56345 149.786 9.43378 149.786 10.4824C149.786 11.531 149.356 12.0553 148.496 12.0553C147.993 12.0553 147.584 11.898 147.269 11.5834C147.542 10.9752 147.678 10.3565 147.678 9.72738C147.678 8.61588 147.217 8.06012 146.294 8.06012C145.518 8.06012 144.83 8.70396 144.23 9.99163C143.635 11.2835 143.337 13.1563 143.337 15.61V19.7939C143.337 20.0875 143.484 20.2343 143.777 20.2343H145.885V20.8005H139.153V20.2343H140.632C140.925 20.2343 141.072 20.0875 141.072 19.7939V8.21741C141.072 7.9238 140.925 7.777 140.632 7.777H139.153V7.21076H140.695C141.953 7.21076 142.834 7.14785 143.337 7.02202V11.0486C143.673 9.60155 144.165 8.53618 144.816 7.8525C145.466 7.17301 146.2 6.83327 147.018 6.83327ZM157.556 6.83327C159.003 6.83327 160.146 7.31562 160.985 8.28033C161.824 9.24503 162.243 10.6606 162.243 12.5271C162.243 12.9046 162.222 13.3241 162.18 13.7854H153.592V14.0056C153.592 15.998 153.953 17.5646 154.674 18.7054C155.4 19.8505 156.333 20.423 157.474 20.423C158.619 20.423 159.559 20.1294 160.293 19.5422C161.027 18.955 161.53 18.1161 161.803 17.0256L162.4 17.1514C162.149 18.4307 161.572 19.4227 160.67 20.1273C159.769 20.8278 158.73 21.178 157.556 21.178C155.731 21.178 154.215 20.5384 153.007 19.2591C151.803 17.9798 151.201 16.2328 151.201 14.0182C151.201 11.8078 151.81 10.0566 153.026 8.76478C154.242 7.47711 155.752 6.83327 157.556 6.83327ZM160.073 11.4576C160.073 8.87802 159.108 7.58826 157.178 7.58826C156.214 7.58826 155.39 8.11255 154.706 9.16114C154.026 10.2097 153.666 11.5414 153.624 13.1563H159.947C160.031 12.4432 160.073 11.877 160.073 11.4576Z" fill="#00D1CD"/>
</g>
</g>
<defs>
<clipPath id="clip0_22_139">
<rect width="162.309" height="27.7975" fill="white" transform="translate(0.0910645 0.201294)"/>
</clipPath>
</defs>
</svg>
