<svg width="31" height="39" viewBox="0 0 31 39" fill="none" xmlns="http://www.w3.org/2000/svg">
<g id="icon-0" clip-path="url(#clip0_22_146)">
<path id="Vector" d="M11.3256 27.8385C11.3083 27.8368 11.2915 27.8363 11.2742 27.8345V26.4601H11.3894C11.9926 26.4601 12.4816 25.9711 12.4816 25.3679C12.4816 24.7646 11.9926 24.2756 11.3894 24.2756H9.9503C10.0424 24.191 10.1346 24.1064 10.2258 24.0227C11.8257 22.554 13.2966 20.9116 14.6542 19.2187C16.6429 16.7219 18.4718 14.1193 20.0708 11.3541C17.5828 14.3367 15.1197 17.3482 12.4258 20.1497C11.0403 21.5906 9.60836 22.9969 8.06962 24.2756H5.00101C4.39775 24.2756 3.90875 24.7646 3.90875 25.3679C3.90875 25.9711 4.39775 26.4601 5.00101 26.4601H5.11618V27.8345C5.0989 27.8363 5.08207 27.8368 5.0648 27.8385C3.25765 28.0786 0.926073 29.996 0.663859 31.8364C0.508391 33.2347 0.635068 34.6331 1.04389 36.0314C1.30965 36.8823 2.33813 37.7406 3.18235 37.8935C6.52425 38.4462 9.86658 38.4462 13.2085 37.8935C14.0523 37.7406 15.0812 36.8818 15.3469 36.0314C15.7558 34.6331 15.8824 33.2347 15.727 31.8364C15.4643 29.9956 13.1327 28.0786 11.3256 27.8385ZM4.43274 29.8738C4.29676 30.3362 3.86712 30.6711 3.58719 31.0431C3.34845 31.3598 3.16995 31.7177 3.04371 32.0933C2.84661 32.6802 2.76113 33.2923 2.73721 33.9093C2.73411 33.9908 2.77308 34.9865 2.74695 34.9945L2.45949 35.0813C2.45949 35.0813 2.24954 34.7172 2.09718 34.1197C1.86508 33.2113 1.83496 32.0526 2.26637 31.1924C2.537 30.6525 2.84262 30.1608 3.31213 29.7595C3.54334 29.5615 4.61655 29.2493 4.43274 29.8738Z" fill="#00D1CD"/>
<path id="Vector_2" d="M30.3578 0.425697C30.4238 0.230808 30.4796 0.0531938 30.5288 -0.108032C26.0733 0.887228 21.6985 2.52784 18.2725 5.37631C17.5381 8.02724 18.2751 9.61071 18.2751 9.61071C18.2751 9.61071 16.8312 9.08584 15.967 7.66005C15.393 8.34172 14.8628 9.07388 14.3853 9.86406C12.9277 13.38 13.9327 15.5451 13.9327 15.5451C13.9327 15.5451 13.0911 15.2394 12.2943 14.4634C11.0195 17.622 9.87633 20.2755 9.02325 22.2001C11.0426 20.4195 13.0601 18.6402 14.8504 16.6116C16.7435 14.5334 18.6184 12.4295 20.4114 10.2649C20.7431 9.87071 21.0248 9.52123 21.2707 9.24175C21.7539 8.67746 22.0387 8.35855 22.0387 8.35855C22.0387 8.35855 21.8633 8.74522 21.5391 9.41493C20.453 11.6575 19.204 13.7964 17.8615 15.8936C16.1588 18.5534 14.1825 21.1118 11.9771 23.4141C11.753 23.648 12.0139 24.0223 12.3107 23.8916C14.4691 22.9402 16.5659 21.7558 18.4771 20.3783C18.0271 20.3265 17.5815 20.2277 17.1461 20.0793C16.9929 20.012 16.8613 19.9544 16.755 19.9013C16.542 19.8003 16.4259 19.7383 16.4259 19.7383C16.4259 19.7383 16.5597 19.7387 16.794 19.7396C17.9115 19.7436 19.0148 19.5394 20.0566 19.1602C21.1887 18.2248 22.2309 17.2167 23.1567 16.1474C22.2624 16.1709 21.3787 16.007 20.5615 15.6425C20.4703 15.6018 20.5075 15.4658 20.6072 15.4684C21.52 15.4915 22.4307 15.3471 23.3006 15.0751C23.6461 14.967 23.9841 14.8368 24.3149 14.6915C25.2136 13.4522 25.9524 12.1434 26.4862 10.7774C27.0354 9.37197 27.5359 8.09678 27.9864 6.95225C26.9898 7.15511 25.9737 7.14182 24.9811 6.92922C24.9811 6.92922 25.1525 6.85569 25.4524 6.72724C28.1254 5.58183 29.471 3.04119 30.3578 0.425697Z" fill="#00D1CD"/>
</g>
<defs>
<clipPath id="clip0_22_146">
<rect width="29.9291" height="38.4161" fill="white" transform="translate(0.599609 -0.108032)"/>
</clipPath>
</defs>
</svg>
